<?xml version="1.0" encoding="iso-8859-1"?>
<!-- Generator: Adobe Illustrator 19.0.0, SVG Export Plug-In . SVG Version: 6.00 Build 0)  -->
<svg version="1.1" id="Capa_1" xmlns="http://www.w3.org/2000/svg" xmlns:xlink="http://www.w3.org/1999/xlink" x="0px" y="0px"
	 viewBox="0 0 512 512" style="enable-background:new 0 0 512 512;" xml:space="preserve">
<path style="fill:#36CD90;" d="M512,376H0V91c0-24.813,20.187-45,45-45h422c24.813,0,45,20.187,45,45V376z"/>
<path style="fill:#00BB64;" d="M512,91c0-24.813-20.187-45-45-45H256v330h256V91z"/>
<path style="fill:#00A7FF;" d="M462,376H50V96h412V376z"/>
<rect x="256" y="96" style="fill:#006EF5;" width="206" height="280"/>
<path style="fill:#FFB64C;" d="M403.421,242.394c-2.387-2.99-5.63-5.092-9.729-6.301c3.428-1.545,5.999-3.847,7.713-6.906
	c1.714-3.058,2.571-6.266,2.571-9.628c0-2.284-0.388-4.52-1.16-6.704c-0.773-2.184-1.865-4.133-3.277-5.847
	c-1.411-1.714-3.125-3.108-5.142-4.184c-2.016-1.075-4.269-1.613-6.755-1.613h-1.178v-9.138h-15.23v9.138h-9.138v-9.138h-15.23
	v9.138h-9.899v8.377l9.138,8.377v38.076l-9.138,6.854v9.9h9.899v9.138h15.23v-9.138h9.138v9.138h15.23v-9.412
	c1.63-0.176,3.217-0.437,4.757-0.784c3.126-0.706,5.863-1.798,8.217-3.277c2.352-1.478,4.2-3.378,5.545-5.696
	c1.344-2.319,2.016-5.092,2.016-8.318C407,249.401,405.806,245.386,403.421,242.394z M365.765,217.945h14.014
	c1.276,0,2.385,0.421,3.327,1.26c0.94,0.841,1.411,2.235,1.411,4.184c0,2.218-0.555,3.697-1.664,4.436
	c-1.109,0.741-2.337,1.109-3.68,1.109h-13.409L365.765,217.945L365.765,217.945z M385.374,254.745
	c-1.109,1.008-1.866,1.293-3.479,1.293h-15.992v-12.184h15.992c1.478,0,2.866,0.348,3.808,1.523c0.94,1.177,1.523,2.822,1.523,4.569
	C387.226,251.828,386.483,253.736,385.374,254.745z"/>
<g>
	<path style="fill:#FFDB2D;" d="M467,466H45c-24.813,0-45-20.187-45-45v-75h512v75C512,445.813,491.813,466,467,466z"/>
	<path style="fill:#FFDB2D;" d="M239,321.772V282h-40v-90h40v-39.772L328.859,237L239,321.772z"/>
	<rect x="149" y="192" style="fill:#FFDB2D;" width="30" height="90"/>
	<rect x="99" y="192" style="fill:#FFDB2D;" width="30" height="90"/>
</g>
<path style="fill:#FFB64C;" d="M256,346v120h211c24.813,0,45-20.187,45-45v-75H256z"/>
<path style="fill:#FFA920;" d="M306,422H206c-13.785,0-25-11.215-25-25v-51h150v51C331,410.785,319.785,422,306,422z"/>
<path style="fill:#FF8900;" d="M256,346v76h50c13.785,0,25-11.215,25-25v-51H256z"/>
<polygon style="fill:#FFB64C;" points="256,168.265 256,305.735 328.859,237 "/>
<g>
</g>
<g>
</g>
<g>
</g>
<g>
</g>
<g>
</g>
<g>
</g>
<g>
</g>
<g>
</g>
<g>
</g>
<g>
</g>
<g>
</g>
<g>
</g>
<g>
</g>
<g>
</g>
<g>
</g>
</svg>
